<?xml version="1.0" encoding="UTF-8"?>
<svg width="572px" height="263px" viewBox="0 0 572 263" version="1.1" xmlns="http://www.w3.org/2000/svg" xmlns:xlink="http://www.w3.org/1999/xlink">
    <!-- Generator: Sketch 59 (86127) - https://sketch.com -->
    <title>Group 6</title>
    <desc>Created with Sketch.</desc>
    <g id="Page-1" stroke="none" stroke-width="1" fill="none" fill-rule="evenodd">
        <g id="CREATOR" transform="translate(-843.000000, -352.000000)">
            <g id="Group-6" transform="translate(843.000000, 355.000000)">
                <path d="M563.146107,259.2 L8.05389315,259.2 C3.57950807,259.2 0,257.066667 0,254.4 C0,251.733333 3.57950807,249.6 8.05389315,249.6 L563.146107,249.6 C567.620492,249.6 571.2,251.733333 571.2,254.4 C571.2,257.066667 567.620492,259.2 563.146107,259.2 Z" id="XMLID_223_" fill="#2FCC71" fill-rule="nonzero" opacity="0.408854167"></path>
                <g id="XMLID_111_" transform="translate(86.400000, 0.000000)">
                    <path d="M386.208,221.616 L37.296,221.616 L37.296,11.952 C37.296,5.76 42.336,0.72 48.528,0.72 L375.12,0.72 C381.168,0.72 386.064,5.616 386.064,11.664 L386.064,221.616 L386.208,221.616 Z" id="XMLID_100_" fill="#4F4F4F" fill-rule="nonzero"></path>
                    <path d="M387.072,222.048 L38.304,222.048 L38.304,11.808 C38.304,5.472 43.488,0.288 49.824,0.288 L375.552,0.288 C381.888,0.288 387.072,5.472 387.072,11.808 L387.072,222.048 Z" id="XMLID_11_" stroke="#4F4F4F" stroke-width="5.76" stroke-linecap="round" stroke-linejoin="round"></path>
                    <rect id="XMLID_101_" fill="#F6F9FD" fill-rule="nonzero" transform="translate(212.799456, 111.205728) rotate(90.000000) translate(-212.799456, -111.205728) " x="120.495456" y="-43.954272" width="184.608" height="310.32"></rect>
                    <path d="M133.488,168.336 L106.704,168.336 C105.12,168.336 103.824,167.04 103.824,165.456 L103.824,73.728 C103.824,72.144 105.12,70.848 106.704,70.848 L133.488,70.848 C135.072,70.848 136.368,72.144 136.368,73.728 L136.368,165.6 C136.368,167.04 135.072,168.336 133.488,168.336 Z" id="XMLID_183_" fill="#848484" fill-rule="nonzero" opacity="0.32"></path>
                    <path d="M326.88,186.912 L172.224,186.912 C169.056,186.912 166.464,184.32 166.464,181.152 L166.464,62.928 C166.464,59.76 169.056,57.168 172.224,57.168 L326.88,57.168 C330.048,57.168 332.64,59.76 332.64,62.928 L332.64,181.152 C332.64,184.32 330.192,186.912 326.88,186.912 Z" id="XMLID_178_" fill="#848484" fill-rule="nonzero" opacity="0.32"></path>
                    <path d="M425.088,222.048 L0.144,222.048 L0.144,235.584 C0.144,241.92 5.328,247.104 11.664,247.104 L413.568,247.104 C419.904,247.104 425.088,241.92 425.088,235.584 L425.088,222.048 Z" id="XMLID_110_" fill="#DBDCDC" fill-rule="nonzero"></path>
                    <path d="M16.416,247.968 L408.96,247.968 C416.88,247.968 423.36,241.92 424.8,233.712 L0.432,233.712 C1.872,241.92 8.496,247.968 16.416,247.968 Z" id="XMLID_206_" fill="#E8E8E8" fill-rule="nonzero" opacity="0.8"></path>
                    <path d="M425.088,222.048 L0.144,222.048 L0.144,235.584 C0.144,241.92 5.328,247.104 11.664,247.104 L413.568,247.104 C419.904,247.104 425.088,241.92 425.088,235.584 L425.088,222.048 Z" id="XMLID_15_" stroke="#DBDBDB" stroke-width="5.76" stroke-linecap="round" stroke-linejoin="round"></path>
                    <rect id="XMLID_201_" fill="#2FCC71" fill-rule="nonzero" x="96.192" y="63.504" width="32.4" height="32.4"></rect>
                    <rect id="XMLID_138_" x="96.768" y="63.792" width="32.4" height="32.4"></rect>
                    <rect id="XMLID_180_" x="96.768" y="63.792" width="32.4" height="32.4"></rect>
                    <rect id="XMLID_156_" fill="#F1C50F" fill-rule="nonzero" x="96.192" y="95.904" width="32.4" height="32.4"></rect>
                    <rect id="XMLID_140_" x="96.768" y="96.336" width="32.4" height="32.4"></rect>
                    <rect id="XMLID_202_" fill="#3497DC" fill-rule="nonzero" x="96.192" y="128.304" width="32.4" height="32.4"></rect>
                    <rect id="XMLID_143_" x="96.768" y="128.736" width="32.4" height="32.4"></rect>
                    <path d="M317.52,176.976 L162.72,176.976 C159.552,176.976 156.96,174.384 156.96,171.216 L156.96,52.992 C156.96,49.824 159.552,47.232 162.72,47.232 L317.52,47.232 C320.688,47.232 323.28,49.824 323.28,52.992 L323.28,171.216 C323.28,174.528 320.688,176.976 317.52,176.976 Z" id="XMLID_115_" fill="#FFFFFF" fill-rule="nonzero"></path>
                    <path d="M317.52,176.976 L162.72,176.976 C159.552,176.976 156.96,174.384 156.96,171.216 L156.96,52.992 C156.96,49.824 159.552,47.232 162.72,47.232 L317.52,47.232 C320.688,47.232 323.28,49.824 323.28,52.992 L323.28,171.216 C323.28,174.528 320.688,176.976 317.52,176.976 Z" id="XMLID_139_"></path>
                    <g id="XMLID_147_" opacity="0.3" transform="translate(204.480000, 79.200000)" stroke="#444E59" stroke-linejoin="round" stroke-width="2.88">
                        <g id="XMLID_205_">
                            <polyline id="XMLID_419_" points="70.128 63.648 70.128 65.808 67.968 65.808"></polyline>
                            <line x1="65.232" y1="65.808" x2="4.896" y2="65.808" id="XMLID_418_" stroke-dasharray="4.115520000457764,2.74363203048706"></line>
                            <polyline id="XMLID_417_" points="3.456 65.808 1.296 65.808 1.296 63.648"></polyline>
                            <line x1="1.296" y1="60.624" x2="1.296" y2="4.464" id="XMLID_416_" stroke-dasharray="4.326624011993408,2.884319972991943"></line>
                            <polyline id="XMLID_415_" points="1.296 3.024 1.296 0.864 3.456 0.864"></polyline>
                            <line x1="6.192" y1="0.864" x2="66.528" y2="0.864" id="XMLID_214_" stroke-dasharray="4.115520000457764,2.74363203048706"></line>
                            <polyline id="XMLID_213_" points="67.968 0.864 70.128 0.864 70.128 3.024"></polyline>
                            <line x1="70.128" y1="5.904" x2="70.128" y2="62.208" id="XMLID_211_" stroke-dasharray="4.326624011993408,2.884319972991943"></line>
                        </g>
                    </g>
                    <g id="XMLID_155_" transform="translate(200.160000, 74.440000)">
                        <rect id="XMLID_154_" fill="#FFFFFF" fill-rule="nonzero" x="0.864" y="0.584" width="10.224" height="10.224"></rect>
                        <rect id="XMLID_153_" stroke="#444E59" stroke-width="1.44" stroke-linejoin="round" x="0.432" y="0.152" width="10.08" height="10.08"></rect>
                    </g>
                    <g id="XMLID_157_" transform="translate(200.160000, 139.440000)">
                        <rect id="XMLID_159_" fill="#FFFFFF" fill-rule="nonzero" x="0.864" y="0.384" width="10.224" height="10.224"></rect>
                        <rect id="XMLID_158_" stroke="#444E59" stroke-width="1.44" stroke-linejoin="round" x="0.432" y="0.096" width="10.08" height="10.08"></rect>
                    </g>
                    <g id="XMLID_162_" transform="translate(269.280000, 74.440000)">
                        <rect id="XMLID_166_" fill="#FFFFFF" fill-rule="nonzero" x="0.288" y="0.584" width="10.224" height="10.224"></rect>
                        <rect id="XMLID_164_" stroke="#444E59" stroke-width="1.44" stroke-linejoin="round" x="0.288" y="0.152" width="10.08" height="10.08"></rect>
                    </g>
                    <g id="XMLID_196_" transform="translate(269.280000, 139.440000)">
                        <rect id="XMLID_198_" fill="#FFFFFF" fill-rule="nonzero" x="0.288" y="0.384" width="10.224" height="10.224"></rect>
                        <rect id="XMLID_197_" stroke="#444E59" stroke-width="1.44" stroke-linejoin="round" x="0.288" y="0.096" width="10.08" height="10.08"></rect>
                    </g>
                    <g id="XMLID_229_" transform="translate(112.320000, 112.320000)">
                        <g id="XMLID_225_">
                            <polygon id="XMLID_230_" fill="#FFFFFF" fill-rule="nonzero" points="0.72 0.72 10.944 22.608 20.88 27.792 27.792 20.88 22.752 10.8"></polygon>
                            <polygon id="XMLID_227_" stroke="#444E59" stroke-width="1.44" stroke-linejoin="round" points="0.72 0.72 10.944 22.608 20.88 27.792 27.792 20.88 22.752 10.8"></polygon>
                            <circle id="XMLID_224_" fill="#444E59" fill-rule="nonzero" cx="13.68" cy="13.104" r="2.736"></circle>
                            <line x1="0.72" y1="0.72" x2="12.096" y2="12.096" id="XMLID_226_" stroke="#444E59" stroke-width="1.44" stroke-linecap="round" stroke-linejoin="round"></line>
                        </g>
                        <rect id="XMLID_231_" fill="#FFFFFF" fill-rule="nonzero" transform="translate(26.867772, 26.722562) rotate(-45.000000) translate(-26.867772, -26.722562) " x="21.971819" y="23.1945962" width="9.79190609" height="7.05593233"></rect>
                        <rect id="XMLID_228_" stroke="#444E59" stroke-width="1.43998619" stroke-linejoin="round" transform="translate(26.867772, 26.722562) rotate(-45.000000) translate(-26.867772, -26.722562) " x="21.971819" y="23.1945962" width="9.79190609" height="7.05593233"></rect>
                    </g>
                </g>
                <g id="XMLID_1_" transform="translate(362.800000, 27.600000)">
                    <rect id="XMLID_93_" fill="#848484" fill-rule="nonzero" x="40.92" y="0.36" width="15.48" height="40.92"></rect>
                    <rect id="XMLID_237_" fill="#848484" fill-rule="nonzero" opacity="0.25" x="40.92" y="0.36" width="5.76" height="40.92"></rect>
                    <rect id="XMLID_40_" stroke="#444E59" stroke-width="4.8" stroke-linecap="round" stroke-linejoin="round" x="40.92" y="0.36" width="15.48" height="40.92"></rect>
                    <rect id="XMLID_95_" fill="#FFFFFF" fill-rule="nonzero" x="45.12" y="41.4" width="7.08" height="19.8"></rect>
                    <rect id="XMLID_42_" stroke="#444E59" stroke-width="4.8" stroke-linecap="round" stroke-linejoin="round" x="45.12" y="41.4" width="7.08" height="19.8"></rect>
                    <g id="XMLID_16_" transform="translate(0.000000, 78.000000)">
                        <polygon id="XMLID_98_" fill="#FFFFFF" fill-rule="nonzero" points="36.72 0.84 0.72 142.08 55.44 2.76"></polygon>
                        <polygon id="XMLID_37_" stroke="#444E59" stroke-width="4.8" stroke-linecap="round" stroke-linejoin="round" points="36.72 0.84 0.72 142.08 55.44 2.76"></polygon>
                        <polygon id="XMLID_97_" fill="#FFFFFF" fill-rule="nonzero" points="60.72 0.84 96.72 142.08 42.12 2.76"></polygon>
                        <polygon id="XMLID_38_" stroke="#444E59" stroke-width="4.8" stroke-linecap="round" stroke-linejoin="round" points="60.72 0.84 96.72 142.08 42.12 2.76"></polygon>
                    </g>
                    <circle id="XMLID_91_" fill="#FFFFFF" fill-rule="nonzero" cx="48.72" cy="82.56" r="24"></circle>
                    <path d="M31.44,82.56 C31.44,70.44 40.44,60.48 52.08,58.8 C51,58.68 49.92,58.56 48.72,58.56 C35.52,58.56 24.72,69.36 24.72,82.56 C24.72,95.76 35.52,106.56 48.72,106.56 C49.8,106.56 51,106.44 52.08,106.32 C40.44,104.64 31.44,94.68 31.44,82.56 Z" id="XMLID_241_" fill="#71A850" fill-rule="nonzero" opacity="0.4"></path>
                    <circle id="XMLID_39_" stroke="#444E59" stroke-width="4.8" stroke-linecap="round" stroke-linejoin="round" cx="48.72" cy="82.56" r="24"></circle>
                    <circle id="XMLID_94_" fill="#2FCC71" fill-rule="nonzero" cx="48.72" cy="82.56" r="8.16"></circle>
                    <circle id="XMLID_92_" stroke="#2FCC71" stroke-width="4.8" stroke-linecap="round" stroke-linejoin="round" cx="48.72" cy="82.56" r="8.16"></circle>
                </g>
                <g id="XMLID_90_" transform="translate(431.200000, 60.000000)">
                    <path d="M93.6,186.24 L12.84,186.24 C6.24,186.24 0.84,180.84 0.84,174.24 L0.84,12.36 C0.84,5.76 6.24,0.36 12.84,0.36 L93.6,0.36 C100.2,0.36 105.6,5.76 105.6,12.36 L105.6,174.24 C105.6,180.96 100.2,186.24 93.6,186.24 Z" id="XMLID_102_" fill="#FFFFFF" fill-rule="nonzero"></path>
                    <path d="M107.28,56.16 L0.84,56.16 L0.84,12.12 C0.84,5.64 6.12,0.36 12.6,0.36 L94.8,0.36 C101.64,0.36 107.16,6 107.16,12.72 L107.16,56.16 L107.28,56.16 Z" id="XMLID_83_" fill="#3497DC" fill-rule="nonzero"></path>
                    <path d="M93.6,186.24 L12.84,186.24 C6.24,186.24 0.84,180.84 0.84,174.24 L0.84,12.36 C0.84,5.76 6.24,0.36 12.84,0.36 L93.6,0.36 C100.2,0.36 105.6,5.76 105.6,12.36 L105.6,174.24 C105.6,180.96 100.2,186.24 93.6,186.24 Z" id="XMLID_10_" stroke="#5E6369" stroke-width="4.8" stroke-linecap="round" stroke-linejoin="round"></path>
                    <path d="M93.72,186.24 L13.2,186.24 C6.36,186.24 0.72,180.6 0.72,173.76 L0.72,150.72 L105.6,150.72 L105.6,174.36 C105.6,180.96 100.2,186.24 93.72,186.24 Z" id="XMLID_82_" fill="#5E6369" fill-rule="nonzero"></path>
                    <path d="M93.96,186.24 L13.2,186.24 C6.36,186.24 0.72,180.6 0.72,173.76 L0.72,150.72 L105.6,150.72 L105.6,174.6 C105.6,181.08 100.32,186.24 93.96,186.24 Z" id="XMLID_81_" stroke="#5E6369" stroke-width="4.8" stroke-linecap="round" stroke-linejoin="round"></path>
                    <circle id="XMLID_84_" fill="#444E59" fill-rule="nonzero" cx="54" cy="167.76" r="6"></circle>
                    <line x1="24.48" y1="74.76" x2="83.64" y2="74.76" id="XMLID_86_" stroke="#444E59" stroke-width="4.8" opacity="0.3" stroke-linecap="round" stroke-linejoin="round"></line>
                    <line x1="36.24" y1="93.36" x2="73.44" y2="93.36" id="XMLID_87_" stroke="#444E59" stroke-width="4.8" opacity="0.3" stroke-linecap="round" stroke-linejoin="round"></line>
                    <line x1="24.48" y1="110.28" x2="83.64" y2="110.28" id="XMLID_88_" stroke="#444E59" stroke-width="4.8" opacity="0.3" stroke-linecap="round" stroke-linejoin="round"></line>
                    <circle id="XMLID_85_" fill="#FFFFFF" fill-rule="nonzero" opacity="0.62" cx="54" cy="32.52" r="13.44"></circle>
                    <path d="M73.44,128.88 C73.44,132.6 70.44,135.6 66.72,135.6 L41.4,135.6 C37.68,135.6 34.68,132.6 34.68,128.88 L34.68,128.88 C34.68,125.16 37.68,122.16 41.4,122.16 L66.72,122.16 C70.44,122.04 73.44,125.04 73.44,128.88 L73.44,128.88 Z" id="XMLID_89_" fill="#3497DC" fill-rule="nonzero"></path>
                </g>
            </g>
        </g>
    </g>
</svg>